G04 #@! TF.GenerationSoftware,KiCad,Pcbnew,7.0.7*
G04 #@! TF.CreationDate,2023-09-08T00:57:33+01:00*
G04 #@! TF.ProjectId,psram-pmod,70737261-6d2d-4706-9d6f-642e6b696361,A*
G04 #@! TF.SameCoordinates,Original*
G04 #@! TF.FileFunction,Legend,Top*
G04 #@! TF.FilePolarity,Positive*
%FSLAX46Y46*%
G04 Gerber Fmt 4.6, Leading zero omitted, Abs format (unit mm)*
G04 Created by KiCad (PCBNEW 7.0.7) date 2023-09-08 00:57:33*
%MOMM*%
%LPD*%
G01*
G04 APERTURE LIST*
G04 Aperture macros list*
%AMRoundRect*
0 Rectangle with rounded corners*
0 $1 Rounding radius*
0 $2 $3 $4 $5 $6 $7 $8 $9 X,Y pos of 4 corners*
0 Add a 4 corners polygon primitive as box body*
4,1,4,$2,$3,$4,$5,$6,$7,$8,$9,$2,$3,0*
0 Add four circle primitives for the rounded corners*
1,1,$1+$1,$2,$3*
1,1,$1+$1,$4,$5*
1,1,$1+$1,$6,$7*
1,1,$1+$1,$8,$9*
0 Add four rect primitives between the rounded corners*
20,1,$1+$1,$2,$3,$4,$5,0*
20,1,$1+$1,$4,$5,$6,$7,0*
20,1,$1+$1,$6,$7,$8,$9,0*
20,1,$1+$1,$8,$9,$2,$3,0*%
G04 Aperture macros list end*
%ADD10C,0.153000*%
%ADD11C,0.640186*%
%ADD12C,0.120000*%
%ADD13O,1.700000X1.700000*%
%ADD14R,1.700000X1.700000*%
%ADD15RoundRect,0.250000X-0.650000X0.412500X-0.650000X-0.412500X0.650000X-0.412500X0.650000X0.412500X0*%
%ADD16RoundRect,0.150000X-0.150000X1.640000X-0.150000X-1.640000X0.150000X-1.640000X0.150000X1.640000X0*%
%ADD17RoundRect,0.250000X-0.412500X-0.650000X0.412500X-0.650000X0.412500X0.650000X-0.412500X0.650000X0*%
G04 APERTURE END LIST*
D10*
X85933305Y-71760683D02*
X85742829Y-71760683D01*
X85742829Y-71760683D02*
X85647591Y-71808302D01*
X85647591Y-71808302D02*
X85599972Y-71855921D01*
X85599972Y-71855921D02*
X85504734Y-71998778D01*
X85504734Y-71998778D02*
X85457115Y-72189254D01*
X85457115Y-72189254D02*
X85457115Y-72570206D01*
X85457115Y-72570206D02*
X85504734Y-72665444D01*
X85504734Y-72665444D02*
X85552353Y-72713064D01*
X85552353Y-72713064D02*
X85647591Y-72760683D01*
X85647591Y-72760683D02*
X85838067Y-72760683D01*
X85838067Y-72760683D02*
X85933305Y-72713064D01*
X85933305Y-72713064D02*
X85980924Y-72665444D01*
X85980924Y-72665444D02*
X86028543Y-72570206D01*
X86028543Y-72570206D02*
X86028543Y-72332111D01*
X86028543Y-72332111D02*
X85980924Y-72236873D01*
X85980924Y-72236873D02*
X85933305Y-72189254D01*
X85933305Y-72189254D02*
X85838067Y-72141635D01*
X85838067Y-72141635D02*
X85647591Y-72141635D01*
X85647591Y-72141635D02*
X85552353Y-72189254D01*
X85552353Y-72189254D02*
X85504734Y-72236873D01*
X85504734Y-72236873D02*
X85457115Y-72332111D01*
X86885686Y-72094016D02*
X86885686Y-72760683D01*
X86647591Y-71713064D02*
X86409496Y-72427349D01*
X86409496Y-72427349D02*
X87028543Y-72427349D01*
X87409496Y-72760683D02*
X87409496Y-71760683D01*
X87409496Y-71760683D02*
X87742829Y-72474968D01*
X87742829Y-72474968D02*
X88076162Y-71760683D01*
X88076162Y-71760683D02*
X88076162Y-72760683D01*
X88552353Y-72760683D02*
X88552353Y-71760683D01*
X88552353Y-72141635D02*
X88647591Y-72094016D01*
X88647591Y-72094016D02*
X88838067Y-72094016D01*
X88838067Y-72094016D02*
X88933305Y-72141635D01*
X88933305Y-72141635D02*
X88980924Y-72189254D01*
X88980924Y-72189254D02*
X89028543Y-72284492D01*
X89028543Y-72284492D02*
X89028543Y-72570206D01*
X89028543Y-72570206D02*
X88980924Y-72665444D01*
X88980924Y-72665444D02*
X88933305Y-72713064D01*
X88933305Y-72713064D02*
X88838067Y-72760683D01*
X88838067Y-72760683D02*
X88647591Y-72760683D01*
X88647591Y-72760683D02*
X88552353Y-72713064D01*
X90885686Y-72855921D02*
X90790448Y-72808302D01*
X90790448Y-72808302D02*
X90695210Y-72713064D01*
X90695210Y-72713064D02*
X90552353Y-72570206D01*
X90552353Y-72570206D02*
X90457115Y-72522587D01*
X90457115Y-72522587D02*
X90361877Y-72522587D01*
X90409496Y-72760683D02*
X90314258Y-72713064D01*
X90314258Y-72713064D02*
X90219020Y-72617825D01*
X90219020Y-72617825D02*
X90171401Y-72427349D01*
X90171401Y-72427349D02*
X90171401Y-72094016D01*
X90171401Y-72094016D02*
X90219020Y-71903540D01*
X90219020Y-71903540D02*
X90314258Y-71808302D01*
X90314258Y-71808302D02*
X90409496Y-71760683D01*
X90409496Y-71760683D02*
X90599972Y-71760683D01*
X90599972Y-71760683D02*
X90695210Y-71808302D01*
X90695210Y-71808302D02*
X90790448Y-71903540D01*
X90790448Y-71903540D02*
X90838067Y-72094016D01*
X90838067Y-72094016D02*
X90838067Y-72427349D01*
X90838067Y-72427349D02*
X90790448Y-72617825D01*
X90790448Y-72617825D02*
X90695210Y-72713064D01*
X90695210Y-72713064D02*
X90599972Y-72760683D01*
X90599972Y-72760683D02*
X90409496Y-72760683D01*
X91219020Y-72713064D02*
X91361877Y-72760683D01*
X91361877Y-72760683D02*
X91599972Y-72760683D01*
X91599972Y-72760683D02*
X91695210Y-72713064D01*
X91695210Y-72713064D02*
X91742829Y-72665444D01*
X91742829Y-72665444D02*
X91790448Y-72570206D01*
X91790448Y-72570206D02*
X91790448Y-72474968D01*
X91790448Y-72474968D02*
X91742829Y-72379730D01*
X91742829Y-72379730D02*
X91695210Y-72332111D01*
X91695210Y-72332111D02*
X91599972Y-72284492D01*
X91599972Y-72284492D02*
X91409496Y-72236873D01*
X91409496Y-72236873D02*
X91314258Y-72189254D01*
X91314258Y-72189254D02*
X91266639Y-72141635D01*
X91266639Y-72141635D02*
X91219020Y-72046397D01*
X91219020Y-72046397D02*
X91219020Y-71951159D01*
X91219020Y-71951159D02*
X91266639Y-71855921D01*
X91266639Y-71855921D02*
X91314258Y-71808302D01*
X91314258Y-71808302D02*
X91409496Y-71760683D01*
X91409496Y-71760683D02*
X91647591Y-71760683D01*
X91647591Y-71760683D02*
X91790448Y-71808302D01*
X92219020Y-72760683D02*
X92219020Y-71760683D01*
X92219020Y-71760683D02*
X92599972Y-71760683D01*
X92599972Y-71760683D02*
X92695210Y-71808302D01*
X92695210Y-71808302D02*
X92742829Y-71855921D01*
X92742829Y-71855921D02*
X92790448Y-71951159D01*
X92790448Y-71951159D02*
X92790448Y-72094016D01*
X92790448Y-72094016D02*
X92742829Y-72189254D01*
X92742829Y-72189254D02*
X92695210Y-72236873D01*
X92695210Y-72236873D02*
X92599972Y-72284492D01*
X92599972Y-72284492D02*
X92219020Y-72284492D01*
X93219020Y-72760683D02*
X93219020Y-71760683D01*
X84801932Y-90697932D02*
X84468599Y-90221741D01*
X84230504Y-90697932D02*
X84230504Y-89697932D01*
X84230504Y-89697932D02*
X84611456Y-89697932D01*
X84611456Y-89697932D02*
X84706694Y-89745551D01*
X84706694Y-89745551D02*
X84754313Y-89793170D01*
X84754313Y-89793170D02*
X84801932Y-89888408D01*
X84801932Y-89888408D02*
X84801932Y-90031265D01*
X84801932Y-90031265D02*
X84754313Y-90126503D01*
X84754313Y-90126503D02*
X84706694Y-90174122D01*
X84706694Y-90174122D02*
X84611456Y-90221741D01*
X84611456Y-90221741D02*
X84230504Y-90221741D01*
X85611456Y-90650313D02*
X85516218Y-90697932D01*
X85516218Y-90697932D02*
X85325742Y-90697932D01*
X85325742Y-90697932D02*
X85230504Y-90650313D01*
X85230504Y-90650313D02*
X85182885Y-90555074D01*
X85182885Y-90555074D02*
X85182885Y-90174122D01*
X85182885Y-90174122D02*
X85230504Y-90078884D01*
X85230504Y-90078884D02*
X85325742Y-90031265D01*
X85325742Y-90031265D02*
X85516218Y-90031265D01*
X85516218Y-90031265D02*
X85611456Y-90078884D01*
X85611456Y-90078884D02*
X85659075Y-90174122D01*
X85659075Y-90174122D02*
X85659075Y-90269360D01*
X85659075Y-90269360D02*
X85182885Y-90364598D01*
X85992409Y-90031265D02*
X86230504Y-90697932D01*
X86230504Y-90697932D02*
X86468599Y-90031265D01*
X87563838Y-90412217D02*
X88040028Y-90412217D01*
X87468600Y-90697932D02*
X87801933Y-89697932D01*
X87801933Y-89697932D02*
X88135266Y-90697932D01*
X89769897Y-89744161D02*
X89817516Y-89696542D01*
X89817516Y-89696542D02*
X89912754Y-89648923D01*
X89912754Y-89648923D02*
X90150849Y-89648923D01*
X90150849Y-89648923D02*
X90246087Y-89696542D01*
X90246087Y-89696542D02*
X90293706Y-89744161D01*
X90293706Y-89744161D02*
X90341325Y-89839399D01*
X90341325Y-89839399D02*
X90341325Y-89934637D01*
X90341325Y-89934637D02*
X90293706Y-90077494D01*
X90293706Y-90077494D02*
X89722278Y-90648923D01*
X89722278Y-90648923D02*
X90341325Y-90648923D01*
X90960373Y-89648923D02*
X91055611Y-89648923D01*
X91055611Y-89648923D02*
X91150849Y-89696542D01*
X91150849Y-89696542D02*
X91198468Y-89744161D01*
X91198468Y-89744161D02*
X91246087Y-89839399D01*
X91246087Y-89839399D02*
X91293706Y-90029875D01*
X91293706Y-90029875D02*
X91293706Y-90267970D01*
X91293706Y-90267970D02*
X91246087Y-90458446D01*
X91246087Y-90458446D02*
X91198468Y-90553684D01*
X91198468Y-90553684D02*
X91150849Y-90601304D01*
X91150849Y-90601304D02*
X91055611Y-90648923D01*
X91055611Y-90648923D02*
X90960373Y-90648923D01*
X90960373Y-90648923D02*
X90865135Y-90601304D01*
X90865135Y-90601304D02*
X90817516Y-90553684D01*
X90817516Y-90553684D02*
X90769897Y-90458446D01*
X90769897Y-90458446D02*
X90722278Y-90267970D01*
X90722278Y-90267970D02*
X90722278Y-90029875D01*
X90722278Y-90029875D02*
X90769897Y-89839399D01*
X90769897Y-89839399D02*
X90817516Y-89744161D01*
X90817516Y-89744161D02*
X90865135Y-89696542D01*
X90865135Y-89696542D02*
X90960373Y-89648923D01*
X91674659Y-89744161D02*
X91722278Y-89696542D01*
X91722278Y-89696542D02*
X91817516Y-89648923D01*
X91817516Y-89648923D02*
X92055611Y-89648923D01*
X92055611Y-89648923D02*
X92150849Y-89696542D01*
X92150849Y-89696542D02*
X92198468Y-89744161D01*
X92198468Y-89744161D02*
X92246087Y-89839399D01*
X92246087Y-89839399D02*
X92246087Y-89934637D01*
X92246087Y-89934637D02*
X92198468Y-90077494D01*
X92198468Y-90077494D02*
X91627040Y-90648923D01*
X91627040Y-90648923D02*
X92246087Y-90648923D01*
X92579421Y-89648923D02*
X93198468Y-89648923D01*
X93198468Y-89648923D02*
X92865135Y-90029875D01*
X92865135Y-90029875D02*
X93007992Y-90029875D01*
X93007992Y-90029875D02*
X93103230Y-90077494D01*
X93103230Y-90077494D02*
X93150849Y-90125113D01*
X93150849Y-90125113D02*
X93198468Y-90220351D01*
X93198468Y-90220351D02*
X93198468Y-90458446D01*
X93198468Y-90458446D02*
X93150849Y-90553684D01*
X93150849Y-90553684D02*
X93103230Y-90601304D01*
X93103230Y-90601304D02*
X93007992Y-90648923D01*
X93007992Y-90648923D02*
X92722278Y-90648923D01*
X92722278Y-90648923D02*
X92627040Y-90601304D01*
X92627040Y-90601304D02*
X92579421Y-90553684D01*
X84540722Y-88178657D02*
X84540722Y-88892942D01*
X84540722Y-88892942D02*
X84493103Y-89035799D01*
X84493103Y-89035799D02*
X84397865Y-89131038D01*
X84397865Y-89131038D02*
X84255008Y-89178657D01*
X84255008Y-89178657D02*
X84159770Y-89178657D01*
X85778818Y-89178657D02*
X85778818Y-88178657D01*
X85778818Y-88654847D02*
X86350246Y-88654847D01*
X86350246Y-89178657D02*
X86350246Y-88178657D01*
X86826437Y-89178657D02*
X86826437Y-88511990D01*
X86826437Y-88178657D02*
X86778818Y-88226276D01*
X86778818Y-88226276D02*
X86826437Y-88273895D01*
X86826437Y-88273895D02*
X86874056Y-88226276D01*
X86874056Y-88226276D02*
X86826437Y-88178657D01*
X86826437Y-88178657D02*
X86826437Y-88273895D01*
X87302627Y-88511990D02*
X87302627Y-89178657D01*
X87302627Y-88607228D02*
X87350246Y-88559609D01*
X87350246Y-88559609D02*
X87445484Y-88511990D01*
X87445484Y-88511990D02*
X87588341Y-88511990D01*
X87588341Y-88511990D02*
X87683579Y-88559609D01*
X87683579Y-88559609D02*
X87731198Y-88654847D01*
X87731198Y-88654847D02*
X87731198Y-89178657D01*
X88635960Y-89178657D02*
X88635960Y-88178657D01*
X88635960Y-89131038D02*
X88540722Y-89178657D01*
X88540722Y-89178657D02*
X88350246Y-89178657D01*
X88350246Y-89178657D02*
X88255008Y-89131038D01*
X88255008Y-89131038D02*
X88207389Y-89083418D01*
X88207389Y-89083418D02*
X88159770Y-88988180D01*
X88159770Y-88988180D02*
X88159770Y-88702466D01*
X88159770Y-88702466D02*
X88207389Y-88607228D01*
X88207389Y-88607228D02*
X88255008Y-88559609D01*
X88255008Y-88559609D02*
X88350246Y-88511990D01*
X88350246Y-88511990D02*
X88540722Y-88511990D01*
X88540722Y-88511990D02*
X88635960Y-88559609D01*
X89112151Y-89178657D02*
X89112151Y-88511990D01*
X89112151Y-88607228D02*
X89159770Y-88559609D01*
X89159770Y-88559609D02*
X89255008Y-88511990D01*
X89255008Y-88511990D02*
X89397865Y-88511990D01*
X89397865Y-88511990D02*
X89493103Y-88559609D01*
X89493103Y-88559609D02*
X89540722Y-88654847D01*
X89540722Y-88654847D02*
X89540722Y-89178657D01*
X89540722Y-88654847D02*
X89588341Y-88559609D01*
X89588341Y-88559609D02*
X89683579Y-88511990D01*
X89683579Y-88511990D02*
X89826436Y-88511990D01*
X89826436Y-88511990D02*
X89921675Y-88559609D01*
X89921675Y-88559609D02*
X89969294Y-88654847D01*
X89969294Y-88654847D02*
X89969294Y-89178657D01*
X90874055Y-89178657D02*
X90874055Y-88654847D01*
X90874055Y-88654847D02*
X90826436Y-88559609D01*
X90826436Y-88559609D02*
X90731198Y-88511990D01*
X90731198Y-88511990D02*
X90540722Y-88511990D01*
X90540722Y-88511990D02*
X90445484Y-88559609D01*
X90874055Y-89131038D02*
X90778817Y-89178657D01*
X90778817Y-89178657D02*
X90540722Y-89178657D01*
X90540722Y-89178657D02*
X90445484Y-89131038D01*
X90445484Y-89131038D02*
X90397865Y-89035799D01*
X90397865Y-89035799D02*
X90397865Y-88940561D01*
X90397865Y-88940561D02*
X90445484Y-88845323D01*
X90445484Y-88845323D02*
X90540722Y-88797704D01*
X90540722Y-88797704D02*
X90778817Y-88797704D01*
X90778817Y-88797704D02*
X90874055Y-88750085D01*
X91350246Y-89178657D02*
X91350246Y-88511990D01*
X91350246Y-88702466D02*
X91397865Y-88607228D01*
X91397865Y-88607228D02*
X91445484Y-88559609D01*
X91445484Y-88559609D02*
X91540722Y-88511990D01*
X91540722Y-88511990D02*
X91635960Y-88511990D01*
X91921675Y-89131038D02*
X92016913Y-89178657D01*
X92016913Y-89178657D02*
X92207389Y-89178657D01*
X92207389Y-89178657D02*
X92302627Y-89131038D01*
X92302627Y-89131038D02*
X92350246Y-89035799D01*
X92350246Y-89035799D02*
X92350246Y-88988180D01*
X92350246Y-88988180D02*
X92302627Y-88892942D01*
X92302627Y-88892942D02*
X92207389Y-88845323D01*
X92207389Y-88845323D02*
X92064532Y-88845323D01*
X92064532Y-88845323D02*
X91969294Y-88797704D01*
X91969294Y-88797704D02*
X91921675Y-88702466D01*
X91921675Y-88702466D02*
X91921675Y-88654847D01*
X91921675Y-88654847D02*
X91969294Y-88559609D01*
X91969294Y-88559609D02*
X92064532Y-88511990D01*
X92064532Y-88511990D02*
X92207389Y-88511990D01*
X92207389Y-88511990D02*
X92302627Y-88559609D01*
X92778818Y-89178657D02*
X92778818Y-88178657D01*
X93207389Y-89178657D02*
X93207389Y-88654847D01*
X93207389Y-88654847D02*
X93159770Y-88559609D01*
X93159770Y-88559609D02*
X93064532Y-88511990D01*
X93064532Y-88511990D02*
X92921675Y-88511990D01*
X92921675Y-88511990D02*
X92826437Y-88559609D01*
X92826437Y-88559609D02*
X92778818Y-88607228D01*
D11*
X84971482Y-74679844D02*
G75*
G03*
X84971482Y-74679844I-320093J0D01*
G01*
D10*
X87663905Y-75485357D02*
X88282952Y-75485357D01*
X88282952Y-75485357D02*
X87949619Y-75866309D01*
X87949619Y-75866309D02*
X88092476Y-75866309D01*
X88092476Y-75866309D02*
X88187714Y-75913928D01*
X88187714Y-75913928D02*
X88235333Y-75961547D01*
X88235333Y-75961547D02*
X88282952Y-76056785D01*
X88282952Y-76056785D02*
X88282952Y-76294880D01*
X88282952Y-76294880D02*
X88235333Y-76390118D01*
X88235333Y-76390118D02*
X88187714Y-76437738D01*
X88187714Y-76437738D02*
X88092476Y-76485357D01*
X88092476Y-76485357D02*
X87806762Y-76485357D01*
X87806762Y-76485357D02*
X87711524Y-76437738D01*
X87711524Y-76437738D02*
X87663905Y-76390118D01*
X88568667Y-75485357D02*
X88902000Y-76485357D01*
X88902000Y-76485357D02*
X89235333Y-75485357D01*
X89473429Y-75485357D02*
X90092476Y-75485357D01*
X90092476Y-75485357D02*
X89759143Y-75866309D01*
X89759143Y-75866309D02*
X89902000Y-75866309D01*
X89902000Y-75866309D02*
X89997238Y-75913928D01*
X89997238Y-75913928D02*
X90044857Y-75961547D01*
X90044857Y-75961547D02*
X90092476Y-76056785D01*
X90092476Y-76056785D02*
X90092476Y-76294880D01*
X90092476Y-76294880D02*
X90044857Y-76390118D01*
X90044857Y-76390118D02*
X89997238Y-76437738D01*
X89997238Y-76437738D02*
X89902000Y-76485357D01*
X89902000Y-76485357D02*
X89616286Y-76485357D01*
X89616286Y-76485357D02*
X89521048Y-76437738D01*
X89521048Y-76437738D02*
X89473429Y-76390118D01*
X87817367Y-80874944D02*
X87722129Y-80827325D01*
X87722129Y-80827325D02*
X87579272Y-80827325D01*
X87579272Y-80827325D02*
X87436415Y-80874944D01*
X87436415Y-80874944D02*
X87341177Y-80970182D01*
X87341177Y-80970182D02*
X87293558Y-81065420D01*
X87293558Y-81065420D02*
X87245939Y-81255896D01*
X87245939Y-81255896D02*
X87245939Y-81398753D01*
X87245939Y-81398753D02*
X87293558Y-81589229D01*
X87293558Y-81589229D02*
X87341177Y-81684467D01*
X87341177Y-81684467D02*
X87436415Y-81779706D01*
X87436415Y-81779706D02*
X87579272Y-81827325D01*
X87579272Y-81827325D02*
X87674510Y-81827325D01*
X87674510Y-81827325D02*
X87817367Y-81779706D01*
X87817367Y-81779706D02*
X87864986Y-81732086D01*
X87864986Y-81732086D02*
X87864986Y-81398753D01*
X87864986Y-81398753D02*
X87674510Y-81398753D01*
X88293558Y-81827325D02*
X88293558Y-80827325D01*
X88293558Y-80827325D02*
X88864986Y-81827325D01*
X88864986Y-81827325D02*
X88864986Y-80827325D01*
X89341177Y-81827325D02*
X89341177Y-80827325D01*
X89341177Y-80827325D02*
X89579272Y-80827325D01*
X89579272Y-80827325D02*
X89722129Y-80874944D01*
X89722129Y-80874944D02*
X89817367Y-80970182D01*
X89817367Y-80970182D02*
X89864986Y-81065420D01*
X89864986Y-81065420D02*
X89912605Y-81255896D01*
X89912605Y-81255896D02*
X89912605Y-81398753D01*
X89912605Y-81398753D02*
X89864986Y-81589229D01*
X89864986Y-81589229D02*
X89817367Y-81684467D01*
X89817367Y-81684467D02*
X89722129Y-81779706D01*
X89722129Y-81779706D02*
X89579272Y-81827325D01*
X89579272Y-81827325D02*
X89341177Y-81827325D01*
X87564497Y-86778612D02*
X87707354Y-86826231D01*
X87707354Y-86826231D02*
X87945449Y-86826231D01*
X87945449Y-86826231D02*
X88040687Y-86778612D01*
X88040687Y-86778612D02*
X88088306Y-86730992D01*
X88088306Y-86730992D02*
X88135925Y-86635754D01*
X88135925Y-86635754D02*
X88135925Y-86540516D01*
X88135925Y-86540516D02*
X88088306Y-86445278D01*
X88088306Y-86445278D02*
X88040687Y-86397659D01*
X88040687Y-86397659D02*
X87945449Y-86350040D01*
X87945449Y-86350040D02*
X87754973Y-86302421D01*
X87754973Y-86302421D02*
X87659735Y-86254802D01*
X87659735Y-86254802D02*
X87612116Y-86207183D01*
X87612116Y-86207183D02*
X87564497Y-86111945D01*
X87564497Y-86111945D02*
X87564497Y-86016707D01*
X87564497Y-86016707D02*
X87612116Y-85921469D01*
X87612116Y-85921469D02*
X87659735Y-85873850D01*
X87659735Y-85873850D02*
X87754973Y-85826231D01*
X87754973Y-85826231D02*
X87993068Y-85826231D01*
X87993068Y-85826231D02*
X88135925Y-85873850D01*
X88564497Y-86826231D02*
X88564497Y-85826231D01*
X88564497Y-85826231D02*
X88802592Y-85826231D01*
X88802592Y-85826231D02*
X88945449Y-85873850D01*
X88945449Y-85873850D02*
X89040687Y-85969088D01*
X89040687Y-85969088D02*
X89088306Y-86064326D01*
X89088306Y-86064326D02*
X89135925Y-86254802D01*
X89135925Y-86254802D02*
X89135925Y-86397659D01*
X89135925Y-86397659D02*
X89088306Y-86588135D01*
X89088306Y-86588135D02*
X89040687Y-86683373D01*
X89040687Y-86683373D02*
X88945449Y-86778612D01*
X88945449Y-86778612D02*
X88802592Y-86826231D01*
X88802592Y-86826231D02*
X88564497Y-86826231D01*
X89516878Y-86540516D02*
X89993068Y-86540516D01*
X89421640Y-86826231D02*
X89754973Y-85826231D01*
X89754973Y-85826231D02*
X90088306Y-86826231D01*
X87490984Y-83960601D02*
X87633841Y-84008220D01*
X87633841Y-84008220D02*
X87871936Y-84008220D01*
X87871936Y-84008220D02*
X87967174Y-83960601D01*
X87967174Y-83960601D02*
X88014793Y-83912981D01*
X88014793Y-83912981D02*
X88062412Y-83817743D01*
X88062412Y-83817743D02*
X88062412Y-83722505D01*
X88062412Y-83722505D02*
X88014793Y-83627267D01*
X88014793Y-83627267D02*
X87967174Y-83579648D01*
X87967174Y-83579648D02*
X87871936Y-83532029D01*
X87871936Y-83532029D02*
X87681460Y-83484410D01*
X87681460Y-83484410D02*
X87586222Y-83436791D01*
X87586222Y-83436791D02*
X87538603Y-83389172D01*
X87538603Y-83389172D02*
X87490984Y-83293934D01*
X87490984Y-83293934D02*
X87490984Y-83198696D01*
X87490984Y-83198696D02*
X87538603Y-83103458D01*
X87538603Y-83103458D02*
X87586222Y-83055839D01*
X87586222Y-83055839D02*
X87681460Y-83008220D01*
X87681460Y-83008220D02*
X87919555Y-83008220D01*
X87919555Y-83008220D02*
X88062412Y-83055839D01*
X89062412Y-83912981D02*
X89014793Y-83960601D01*
X89014793Y-83960601D02*
X88871936Y-84008220D01*
X88871936Y-84008220D02*
X88776698Y-84008220D01*
X88776698Y-84008220D02*
X88633841Y-83960601D01*
X88633841Y-83960601D02*
X88538603Y-83865362D01*
X88538603Y-83865362D02*
X88490984Y-83770124D01*
X88490984Y-83770124D02*
X88443365Y-83579648D01*
X88443365Y-83579648D02*
X88443365Y-83436791D01*
X88443365Y-83436791D02*
X88490984Y-83246315D01*
X88490984Y-83246315D02*
X88538603Y-83151077D01*
X88538603Y-83151077D02*
X88633841Y-83055839D01*
X88633841Y-83055839D02*
X88776698Y-83008220D01*
X88776698Y-83008220D02*
X88871936Y-83008220D01*
X88871936Y-83008220D02*
X89014793Y-83055839D01*
X89014793Y-83055839D02*
X89062412Y-83103458D01*
X89967174Y-84008220D02*
X89490984Y-84008220D01*
X89490984Y-84008220D02*
X89490984Y-83008220D01*
X77641589Y-88252170D02*
X78260636Y-88252170D01*
X78260636Y-88252170D02*
X77927303Y-88633122D01*
X77927303Y-88633122D02*
X78070160Y-88633122D01*
X78070160Y-88633122D02*
X78165398Y-88680741D01*
X78165398Y-88680741D02*
X78213017Y-88728360D01*
X78213017Y-88728360D02*
X78260636Y-88823598D01*
X78260636Y-88823598D02*
X78260636Y-89061693D01*
X78260636Y-89061693D02*
X78213017Y-89156931D01*
X78213017Y-89156931D02*
X78165398Y-89204551D01*
X78165398Y-89204551D02*
X78070160Y-89252170D01*
X78070160Y-89252170D02*
X77784446Y-89252170D01*
X77784446Y-89252170D02*
X77689208Y-89204551D01*
X77689208Y-89204551D02*
X77641589Y-89156931D01*
X78546351Y-88252170D02*
X78879684Y-89252170D01*
X78879684Y-89252170D02*
X79213017Y-88252170D01*
X79451113Y-88252170D02*
X80070160Y-88252170D01*
X80070160Y-88252170D02*
X79736827Y-88633122D01*
X79736827Y-88633122D02*
X79879684Y-88633122D01*
X79879684Y-88633122D02*
X79974922Y-88680741D01*
X79974922Y-88680741D02*
X80022541Y-88728360D01*
X80022541Y-88728360D02*
X80070160Y-88823598D01*
X80070160Y-88823598D02*
X80070160Y-89061693D01*
X80070160Y-89061693D02*
X80022541Y-89156931D01*
X80022541Y-89156931D02*
X79974922Y-89204551D01*
X79974922Y-89204551D02*
X79879684Y-89252170D01*
X79879684Y-89252170D02*
X79593970Y-89252170D01*
X79593970Y-89252170D02*
X79498732Y-89204551D01*
X79498732Y-89204551D02*
X79451113Y-89156931D01*
X78187123Y-85947363D02*
X78091885Y-85899744D01*
X78091885Y-85899744D02*
X77949028Y-85899744D01*
X77949028Y-85899744D02*
X77806171Y-85947363D01*
X77806171Y-85947363D02*
X77710933Y-86042601D01*
X77710933Y-86042601D02*
X77663314Y-86137839D01*
X77663314Y-86137839D02*
X77615695Y-86328315D01*
X77615695Y-86328315D02*
X77615695Y-86471172D01*
X77615695Y-86471172D02*
X77663314Y-86661648D01*
X77663314Y-86661648D02*
X77710933Y-86756886D01*
X77710933Y-86756886D02*
X77806171Y-86852125D01*
X77806171Y-86852125D02*
X77949028Y-86899744D01*
X77949028Y-86899744D02*
X78044266Y-86899744D01*
X78044266Y-86899744D02*
X78187123Y-86852125D01*
X78187123Y-86852125D02*
X78234742Y-86804505D01*
X78234742Y-86804505D02*
X78234742Y-86471172D01*
X78234742Y-86471172D02*
X78044266Y-86471172D01*
X78663314Y-86899744D02*
X78663314Y-85899744D01*
X78663314Y-85899744D02*
X79234742Y-86899744D01*
X79234742Y-86899744D02*
X79234742Y-85899744D01*
X79710933Y-86899744D02*
X79710933Y-85899744D01*
X79710933Y-85899744D02*
X79949028Y-85899744D01*
X79949028Y-85899744D02*
X80091885Y-85947363D01*
X80091885Y-85947363D02*
X80187123Y-86042601D01*
X80187123Y-86042601D02*
X80234742Y-86137839D01*
X80234742Y-86137839D02*
X80282361Y-86328315D01*
X80282361Y-86328315D02*
X80282361Y-86471172D01*
X80282361Y-86471172D02*
X80234742Y-86661648D01*
X80234742Y-86661648D02*
X80187123Y-86756886D01*
X80187123Y-86756886D02*
X80091885Y-86852125D01*
X80091885Y-86852125D02*
X79949028Y-86899744D01*
X79949028Y-86899744D02*
X79710933Y-86899744D01*
X72305303Y-71988417D02*
X72305303Y-72988417D01*
X72305303Y-72036036D02*
X72400541Y-71988417D01*
X72400541Y-71988417D02*
X72591017Y-71988417D01*
X72591017Y-71988417D02*
X72686255Y-72036036D01*
X72686255Y-72036036D02*
X72733874Y-72083655D01*
X72733874Y-72083655D02*
X72781493Y-72178893D01*
X72781493Y-72178893D02*
X72781493Y-72464607D01*
X72781493Y-72464607D02*
X72733874Y-72559845D01*
X72733874Y-72559845D02*
X72686255Y-72607465D01*
X72686255Y-72607465D02*
X72591017Y-72655084D01*
X72591017Y-72655084D02*
X72400541Y-72655084D01*
X72400541Y-72655084D02*
X72305303Y-72607465D01*
X73210065Y-72655084D02*
X73210065Y-71988417D01*
X73210065Y-72083655D02*
X73257684Y-72036036D01*
X73257684Y-72036036D02*
X73352922Y-71988417D01*
X73352922Y-71988417D02*
X73495779Y-71988417D01*
X73495779Y-71988417D02*
X73591017Y-72036036D01*
X73591017Y-72036036D02*
X73638636Y-72131274D01*
X73638636Y-72131274D02*
X73638636Y-72655084D01*
X73638636Y-72131274D02*
X73686255Y-72036036D01*
X73686255Y-72036036D02*
X73781493Y-71988417D01*
X73781493Y-71988417D02*
X73924350Y-71988417D01*
X73924350Y-71988417D02*
X74019589Y-72036036D01*
X74019589Y-72036036D02*
X74067208Y-72131274D01*
X74067208Y-72131274D02*
X74067208Y-72655084D01*
X74686255Y-72655084D02*
X74591017Y-72607465D01*
X74591017Y-72607465D02*
X74543398Y-72559845D01*
X74543398Y-72559845D02*
X74495779Y-72464607D01*
X74495779Y-72464607D02*
X74495779Y-72178893D01*
X74495779Y-72178893D02*
X74543398Y-72083655D01*
X74543398Y-72083655D02*
X74591017Y-72036036D01*
X74591017Y-72036036D02*
X74686255Y-71988417D01*
X74686255Y-71988417D02*
X74829112Y-71988417D01*
X74829112Y-71988417D02*
X74924350Y-72036036D01*
X74924350Y-72036036D02*
X74971969Y-72083655D01*
X74971969Y-72083655D02*
X75019588Y-72178893D01*
X75019588Y-72178893D02*
X75019588Y-72464607D01*
X75019588Y-72464607D02*
X74971969Y-72559845D01*
X74971969Y-72559845D02*
X74924350Y-72607465D01*
X74924350Y-72607465D02*
X74829112Y-72655084D01*
X74829112Y-72655084D02*
X74686255Y-72655084D01*
X75876731Y-72655084D02*
X75876731Y-71655084D01*
X75876731Y-72607465D02*
X75781493Y-72655084D01*
X75781493Y-72655084D02*
X75591017Y-72655084D01*
X75591017Y-72655084D02*
X75495779Y-72607465D01*
X75495779Y-72607465D02*
X75448160Y-72559845D01*
X75448160Y-72559845D02*
X75400541Y-72464607D01*
X75400541Y-72464607D02*
X75400541Y-72178893D01*
X75400541Y-72178893D02*
X75448160Y-72083655D01*
X75448160Y-72083655D02*
X75495779Y-72036036D01*
X75495779Y-72036036D02*
X75591017Y-71988417D01*
X75591017Y-71988417D02*
X75781493Y-71988417D01*
X75781493Y-71988417D02*
X75876731Y-72036036D01*
X76352922Y-72274131D02*
X77114827Y-72274131D01*
X77591017Y-71988417D02*
X77591017Y-72988417D01*
X77591017Y-72036036D02*
X77686255Y-71988417D01*
X77686255Y-71988417D02*
X77876731Y-71988417D01*
X77876731Y-71988417D02*
X77971969Y-72036036D01*
X77971969Y-72036036D02*
X78019588Y-72083655D01*
X78019588Y-72083655D02*
X78067207Y-72178893D01*
X78067207Y-72178893D02*
X78067207Y-72464607D01*
X78067207Y-72464607D02*
X78019588Y-72559845D01*
X78019588Y-72559845D02*
X77971969Y-72607465D01*
X77971969Y-72607465D02*
X77876731Y-72655084D01*
X77876731Y-72655084D02*
X77686255Y-72655084D01*
X77686255Y-72655084D02*
X77591017Y-72607465D01*
X78448160Y-72607465D02*
X78543398Y-72655084D01*
X78543398Y-72655084D02*
X78733874Y-72655084D01*
X78733874Y-72655084D02*
X78829112Y-72607465D01*
X78829112Y-72607465D02*
X78876731Y-72512226D01*
X78876731Y-72512226D02*
X78876731Y-72464607D01*
X78876731Y-72464607D02*
X78829112Y-72369369D01*
X78829112Y-72369369D02*
X78733874Y-72321750D01*
X78733874Y-72321750D02*
X78591017Y-72321750D01*
X78591017Y-72321750D02*
X78495779Y-72274131D01*
X78495779Y-72274131D02*
X78448160Y-72178893D01*
X78448160Y-72178893D02*
X78448160Y-72131274D01*
X78448160Y-72131274D02*
X78495779Y-72036036D01*
X78495779Y-72036036D02*
X78591017Y-71988417D01*
X78591017Y-71988417D02*
X78733874Y-71988417D01*
X78733874Y-71988417D02*
X78829112Y-72036036D01*
X79305303Y-72655084D02*
X79305303Y-71988417D01*
X79305303Y-72178893D02*
X79352922Y-72083655D01*
X79352922Y-72083655D02*
X79400541Y-72036036D01*
X79400541Y-72036036D02*
X79495779Y-71988417D01*
X79495779Y-71988417D02*
X79591017Y-71988417D01*
X80352922Y-72655084D02*
X80352922Y-72131274D01*
X80352922Y-72131274D02*
X80305303Y-72036036D01*
X80305303Y-72036036D02*
X80210065Y-71988417D01*
X80210065Y-71988417D02*
X80019589Y-71988417D01*
X80019589Y-71988417D02*
X79924351Y-72036036D01*
X80352922Y-72607465D02*
X80257684Y-72655084D01*
X80257684Y-72655084D02*
X80019589Y-72655084D01*
X80019589Y-72655084D02*
X79924351Y-72607465D01*
X79924351Y-72607465D02*
X79876732Y-72512226D01*
X79876732Y-72512226D02*
X79876732Y-72416988D01*
X79876732Y-72416988D02*
X79924351Y-72321750D01*
X79924351Y-72321750D02*
X80019589Y-72274131D01*
X80019589Y-72274131D02*
X80257684Y-72274131D01*
X80257684Y-72274131D02*
X80352922Y-72226512D01*
X80829113Y-72655084D02*
X80829113Y-71988417D01*
X80829113Y-72083655D02*
X80876732Y-72036036D01*
X80876732Y-72036036D02*
X80971970Y-71988417D01*
X80971970Y-71988417D02*
X81114827Y-71988417D01*
X81114827Y-71988417D02*
X81210065Y-72036036D01*
X81210065Y-72036036D02*
X81257684Y-72131274D01*
X81257684Y-72131274D02*
X81257684Y-72655084D01*
X81257684Y-72131274D02*
X81305303Y-72036036D01*
X81305303Y-72036036D02*
X81400541Y-71988417D01*
X81400541Y-71988417D02*
X81543398Y-71988417D01*
X81543398Y-71988417D02*
X81638637Y-72036036D01*
X81638637Y-72036036D02*
X81686256Y-72131274D01*
X81686256Y-72131274D02*
X81686256Y-72655084D01*
X93641247Y-67782996D02*
X93641247Y-68782996D01*
X93641247Y-67830615D02*
X93546009Y-67782996D01*
X93546009Y-67782996D02*
X93355533Y-67782996D01*
X93355533Y-67782996D02*
X93260295Y-67830615D01*
X93260295Y-67830615D02*
X93212676Y-67878234D01*
X93212676Y-67878234D02*
X93165057Y-67973472D01*
X93165057Y-67973472D02*
X93165057Y-68259186D01*
X93165057Y-68259186D02*
X93212676Y-68354424D01*
X93212676Y-68354424D02*
X93260295Y-68402044D01*
X93260295Y-68402044D02*
X93355533Y-68449663D01*
X93355533Y-68449663D02*
X93546009Y-68449663D01*
X93546009Y-68449663D02*
X93641247Y-68402044D01*
X92736485Y-68449663D02*
X92736485Y-67782996D01*
X92736485Y-67878234D02*
X92688866Y-67830615D01*
X92688866Y-67830615D02*
X92593628Y-67782996D01*
X92593628Y-67782996D02*
X92450771Y-67782996D01*
X92450771Y-67782996D02*
X92355533Y-67830615D01*
X92355533Y-67830615D02*
X92307914Y-67925853D01*
X92307914Y-67925853D02*
X92307914Y-68449663D01*
X92307914Y-67925853D02*
X92260295Y-67830615D01*
X92260295Y-67830615D02*
X92165057Y-67782996D01*
X92165057Y-67782996D02*
X92022200Y-67782996D01*
X92022200Y-67782996D02*
X91926961Y-67830615D01*
X91926961Y-67830615D02*
X91879342Y-67925853D01*
X91879342Y-67925853D02*
X91879342Y-68449663D01*
X91260295Y-68449663D02*
X91355533Y-68402044D01*
X91355533Y-68402044D02*
X91403152Y-68354424D01*
X91403152Y-68354424D02*
X91450771Y-68259186D01*
X91450771Y-68259186D02*
X91450771Y-67973472D01*
X91450771Y-67973472D02*
X91403152Y-67878234D01*
X91403152Y-67878234D02*
X91355533Y-67830615D01*
X91355533Y-67830615D02*
X91260295Y-67782996D01*
X91260295Y-67782996D02*
X91117438Y-67782996D01*
X91117438Y-67782996D02*
X91022200Y-67830615D01*
X91022200Y-67830615D02*
X90974581Y-67878234D01*
X90974581Y-67878234D02*
X90926962Y-67973472D01*
X90926962Y-67973472D02*
X90926962Y-68259186D01*
X90926962Y-68259186D02*
X90974581Y-68354424D01*
X90974581Y-68354424D02*
X91022200Y-68402044D01*
X91022200Y-68402044D02*
X91117438Y-68449663D01*
X91117438Y-68449663D02*
X91260295Y-68449663D01*
X90069819Y-68449663D02*
X90069819Y-67449663D01*
X90069819Y-68402044D02*
X90165057Y-68449663D01*
X90165057Y-68449663D02*
X90355533Y-68449663D01*
X90355533Y-68449663D02*
X90450771Y-68402044D01*
X90450771Y-68402044D02*
X90498390Y-68354424D01*
X90498390Y-68354424D02*
X90546009Y-68259186D01*
X90546009Y-68259186D02*
X90546009Y-67973472D01*
X90546009Y-67973472D02*
X90498390Y-67878234D01*
X90498390Y-67878234D02*
X90450771Y-67830615D01*
X90450771Y-67830615D02*
X90355533Y-67782996D01*
X90355533Y-67782996D02*
X90165057Y-67782996D01*
X90165057Y-67782996D02*
X90069819Y-67830615D01*
X89593628Y-68068710D02*
X88831724Y-68068710D01*
X88355533Y-67782996D02*
X88355533Y-68782996D01*
X88355533Y-67830615D02*
X88260295Y-67782996D01*
X88260295Y-67782996D02*
X88069819Y-67782996D01*
X88069819Y-67782996D02*
X87974581Y-67830615D01*
X87974581Y-67830615D02*
X87926962Y-67878234D01*
X87926962Y-67878234D02*
X87879343Y-67973472D01*
X87879343Y-67973472D02*
X87879343Y-68259186D01*
X87879343Y-68259186D02*
X87926962Y-68354424D01*
X87926962Y-68354424D02*
X87974581Y-68402044D01*
X87974581Y-68402044D02*
X88069819Y-68449663D01*
X88069819Y-68449663D02*
X88260295Y-68449663D01*
X88260295Y-68449663D02*
X88355533Y-68402044D01*
X87498390Y-68402044D02*
X87403152Y-68449663D01*
X87403152Y-68449663D02*
X87212676Y-68449663D01*
X87212676Y-68449663D02*
X87117438Y-68402044D01*
X87117438Y-68402044D02*
X87069819Y-68306805D01*
X87069819Y-68306805D02*
X87069819Y-68259186D01*
X87069819Y-68259186D02*
X87117438Y-68163948D01*
X87117438Y-68163948D02*
X87212676Y-68116329D01*
X87212676Y-68116329D02*
X87355533Y-68116329D01*
X87355533Y-68116329D02*
X87450771Y-68068710D01*
X87450771Y-68068710D02*
X87498390Y-67973472D01*
X87498390Y-67973472D02*
X87498390Y-67925853D01*
X87498390Y-67925853D02*
X87450771Y-67830615D01*
X87450771Y-67830615D02*
X87355533Y-67782996D01*
X87355533Y-67782996D02*
X87212676Y-67782996D01*
X87212676Y-67782996D02*
X87117438Y-67830615D01*
X86641247Y-68449663D02*
X86641247Y-67782996D01*
X86641247Y-67973472D02*
X86593628Y-67878234D01*
X86593628Y-67878234D02*
X86546009Y-67830615D01*
X86546009Y-67830615D02*
X86450771Y-67782996D01*
X86450771Y-67782996D02*
X86355533Y-67782996D01*
X85593628Y-68449663D02*
X85593628Y-67925853D01*
X85593628Y-67925853D02*
X85641247Y-67830615D01*
X85641247Y-67830615D02*
X85736485Y-67782996D01*
X85736485Y-67782996D02*
X85926961Y-67782996D01*
X85926961Y-67782996D02*
X86022199Y-67830615D01*
X85593628Y-68402044D02*
X85688866Y-68449663D01*
X85688866Y-68449663D02*
X85926961Y-68449663D01*
X85926961Y-68449663D02*
X86022199Y-68402044D01*
X86022199Y-68402044D02*
X86069818Y-68306805D01*
X86069818Y-68306805D02*
X86069818Y-68211567D01*
X86069818Y-68211567D02*
X86022199Y-68116329D01*
X86022199Y-68116329D02*
X85926961Y-68068710D01*
X85926961Y-68068710D02*
X85688866Y-68068710D01*
X85688866Y-68068710D02*
X85593628Y-68021091D01*
X85117437Y-68449663D02*
X85117437Y-67782996D01*
X85117437Y-67878234D02*
X85069818Y-67830615D01*
X85069818Y-67830615D02*
X84974580Y-67782996D01*
X84974580Y-67782996D02*
X84831723Y-67782996D01*
X84831723Y-67782996D02*
X84736485Y-67830615D01*
X84736485Y-67830615D02*
X84688866Y-67925853D01*
X84688866Y-67925853D02*
X84688866Y-68449663D01*
X84688866Y-67925853D02*
X84641247Y-67830615D01*
X84641247Y-67830615D02*
X84546009Y-67782996D01*
X84546009Y-67782996D02*
X84403152Y-67782996D01*
X84403152Y-67782996D02*
X84307913Y-67830615D01*
X84307913Y-67830615D02*
X84260294Y-67925853D01*
X84260294Y-67925853D02*
X84260294Y-68449663D01*
X82450771Y-68449663D02*
X82784104Y-67973472D01*
X83022199Y-68449663D02*
X83022199Y-67449663D01*
X83022199Y-67449663D02*
X82641247Y-67449663D01*
X82641247Y-67449663D02*
X82546009Y-67497282D01*
X82546009Y-67497282D02*
X82498390Y-67544901D01*
X82498390Y-67544901D02*
X82450771Y-67640139D01*
X82450771Y-67640139D02*
X82450771Y-67782996D01*
X82450771Y-67782996D02*
X82498390Y-67878234D01*
X82498390Y-67878234D02*
X82546009Y-67925853D01*
X82546009Y-67925853D02*
X82641247Y-67973472D01*
X82641247Y-67973472D02*
X83022199Y-67973472D01*
X81641247Y-68402044D02*
X81736485Y-68449663D01*
X81736485Y-68449663D02*
X81926961Y-68449663D01*
X81926961Y-68449663D02*
X82022199Y-68402044D01*
X82022199Y-68402044D02*
X82069818Y-68306805D01*
X82069818Y-68306805D02*
X82069818Y-67925853D01*
X82069818Y-67925853D02*
X82022199Y-67830615D01*
X82022199Y-67830615D02*
X81926961Y-67782996D01*
X81926961Y-67782996D02*
X81736485Y-67782996D01*
X81736485Y-67782996D02*
X81641247Y-67830615D01*
X81641247Y-67830615D02*
X81593628Y-67925853D01*
X81593628Y-67925853D02*
X81593628Y-68021091D01*
X81593628Y-68021091D02*
X82069818Y-68116329D01*
X81260294Y-67782996D02*
X81022199Y-68449663D01*
X81022199Y-68449663D02*
X80784104Y-67782996D01*
X79688865Y-68163948D02*
X79212675Y-68163948D01*
X79784103Y-68449663D02*
X79450770Y-67449663D01*
X79450770Y-67449663D02*
X79117437Y-68449663D01*
X72976666Y-73114663D02*
X72976666Y-73828948D01*
X72976666Y-73828948D02*
X72929047Y-73971805D01*
X72929047Y-73971805D02*
X72833809Y-74067044D01*
X72833809Y-74067044D02*
X72690952Y-74114663D01*
X72690952Y-74114663D02*
X72595714Y-74114663D01*
X73976666Y-74114663D02*
X73405238Y-74114663D01*
X73690952Y-74114663D02*
X73690952Y-73114663D01*
X73690952Y-73114663D02*
X73595714Y-73257520D01*
X73595714Y-73257520D02*
X73500476Y-73352758D01*
X73500476Y-73352758D02*
X73405238Y-73400377D01*
X88569424Y-78906666D02*
X88617044Y-78954285D01*
X88617044Y-78954285D02*
X88664663Y-79097142D01*
X88664663Y-79097142D02*
X88664663Y-79192380D01*
X88664663Y-79192380D02*
X88617044Y-79335237D01*
X88617044Y-79335237D02*
X88521805Y-79430475D01*
X88521805Y-79430475D02*
X88426567Y-79478094D01*
X88426567Y-79478094D02*
X88236091Y-79525713D01*
X88236091Y-79525713D02*
X88093234Y-79525713D01*
X88093234Y-79525713D02*
X87902758Y-79478094D01*
X87902758Y-79478094D02*
X87807520Y-79430475D01*
X87807520Y-79430475D02*
X87712282Y-79335237D01*
X87712282Y-79335237D02*
X87664663Y-79192380D01*
X87664663Y-79192380D02*
X87664663Y-79097142D01*
X87664663Y-79097142D02*
X87712282Y-78954285D01*
X87712282Y-78954285D02*
X87759901Y-78906666D01*
X88664663Y-77954285D02*
X88664663Y-78525713D01*
X88664663Y-78239999D02*
X87664663Y-78239999D01*
X87664663Y-78239999D02*
X87807520Y-78335237D01*
X87807520Y-78335237D02*
X87902758Y-78430475D01*
X87902758Y-78430475D02*
X87950377Y-78525713D01*
X84134663Y-76961904D02*
X84944186Y-76961904D01*
X84944186Y-76961904D02*
X85039424Y-76914285D01*
X85039424Y-76914285D02*
X85087044Y-76866666D01*
X85087044Y-76866666D02*
X85134663Y-76771428D01*
X85134663Y-76771428D02*
X85134663Y-76580952D01*
X85134663Y-76580952D02*
X85087044Y-76485714D01*
X85087044Y-76485714D02*
X85039424Y-76438095D01*
X85039424Y-76438095D02*
X84944186Y-76390476D01*
X84944186Y-76390476D02*
X84134663Y-76390476D01*
X85134663Y-75390476D02*
X85134663Y-75961904D01*
X85134663Y-75676190D02*
X84134663Y-75676190D01*
X84134663Y-75676190D02*
X84277520Y-75771428D01*
X84277520Y-75771428D02*
X84372758Y-75866666D01*
X84372758Y-75866666D02*
X84420377Y-75961904D01*
X84546180Y-84988070D02*
X84498561Y-85035690D01*
X84498561Y-85035690D02*
X84355704Y-85083309D01*
X84355704Y-85083309D02*
X84260466Y-85083309D01*
X84260466Y-85083309D02*
X84117609Y-85035690D01*
X84117609Y-85035690D02*
X84022371Y-84940451D01*
X84022371Y-84940451D02*
X83974752Y-84845213D01*
X83974752Y-84845213D02*
X83927133Y-84654737D01*
X83927133Y-84654737D02*
X83927133Y-84511880D01*
X83927133Y-84511880D02*
X83974752Y-84321404D01*
X83974752Y-84321404D02*
X84022371Y-84226166D01*
X84022371Y-84226166D02*
X84117609Y-84130928D01*
X84117609Y-84130928D02*
X84260466Y-84083309D01*
X84260466Y-84083309D02*
X84355704Y-84083309D01*
X84355704Y-84083309D02*
X84498561Y-84130928D01*
X84498561Y-84130928D02*
X84546180Y-84178547D01*
X84927133Y-84178547D02*
X84974752Y-84130928D01*
X84974752Y-84130928D02*
X85069990Y-84083309D01*
X85069990Y-84083309D02*
X85308085Y-84083309D01*
X85308085Y-84083309D02*
X85403323Y-84130928D01*
X85403323Y-84130928D02*
X85450942Y-84178547D01*
X85450942Y-84178547D02*
X85498561Y-84273785D01*
X85498561Y-84273785D02*
X85498561Y-84369023D01*
X85498561Y-84369023D02*
X85450942Y-84511880D01*
X85450942Y-84511880D02*
X84879514Y-85083309D01*
X84879514Y-85083309D02*
X85498561Y-85083309D01*
X91130289Y-73570905D02*
X91130289Y-74285190D01*
X91130289Y-74285190D02*
X91082670Y-74428047D01*
X91082670Y-74428047D02*
X90987432Y-74523286D01*
X90987432Y-74523286D02*
X90844575Y-74570905D01*
X90844575Y-74570905D02*
X90749337Y-74570905D01*
X91558861Y-73666143D02*
X91606480Y-73618524D01*
X91606480Y-73618524D02*
X91701718Y-73570905D01*
X91701718Y-73570905D02*
X91939813Y-73570905D01*
X91939813Y-73570905D02*
X92035051Y-73618524D01*
X92035051Y-73618524D02*
X92082670Y-73666143D01*
X92082670Y-73666143D02*
X92130289Y-73761381D01*
X92130289Y-73761381D02*
X92130289Y-73856619D01*
X92130289Y-73856619D02*
X92082670Y-73999476D01*
X92082670Y-73999476D02*
X91511242Y-74570905D01*
X91511242Y-74570905D02*
X92130289Y-74570905D01*
D12*
X85450000Y-78028748D02*
X85450000Y-79451252D01*
X87270000Y-78028748D02*
X87270000Y-79451252D01*
X78720000Y-78740000D02*
X78720000Y-76790000D01*
X83840000Y-78740000D02*
X83839811Y-73723632D01*
X78720000Y-78740000D02*
X78720000Y-80690000D01*
X83840000Y-78740000D02*
X83840000Y-80690000D01*
X84086248Y-87270000D02*
X85508752Y-87270000D01*
X84086248Y-85450000D02*
X85508752Y-85450000D01*
X92770000Y-74870000D02*
X92770000Y-76200000D01*
X92770000Y-77470000D02*
X92770000Y-87690000D01*
X90110000Y-77470000D02*
X90110000Y-87690000D01*
X90110000Y-77470000D02*
X92770000Y-77470000D01*
X90110000Y-87690000D02*
X92770000Y-87690000D01*
X91440000Y-74870000D02*
X92770000Y-74870000D01*
%LPC*%
D13*
X73310000Y-88900000D03*
X73310000Y-86360000D03*
X73310000Y-83820000D03*
X73310000Y-81280000D03*
X73310000Y-78740000D03*
X73310000Y-76200000D03*
X75850000Y-88900000D03*
X75850000Y-86360000D03*
X75850000Y-83820000D03*
X75850000Y-81280000D03*
X75850000Y-78740000D03*
D14*
X75850000Y-76200000D03*
D15*
X86360000Y-77177500D03*
X86360000Y-80302500D03*
D16*
X83185000Y-82030000D03*
X81915000Y-82030000D03*
X80645000Y-82030000D03*
X79375000Y-82030000D03*
X79375000Y-75450000D03*
X80645000Y-75450000D03*
X81915000Y-75450000D03*
X83185000Y-75450000D03*
D17*
X83235000Y-86360000D03*
X86360000Y-86360000D03*
D14*
X91440000Y-76200000D03*
D13*
X91440000Y-78740000D03*
X91440000Y-81280000D03*
X91440000Y-83820000D03*
X91440000Y-86360000D03*
%LPD*%
M02*
