G04 #@! TF.GenerationSoftware,KiCad,Pcbnew,7.0.7*
G04 #@! TF.CreationDate,2023-09-08T00:57:33+01:00*
G04 #@! TF.ProjectId,psram-pmod,70737261-6d2d-4706-9d6f-642e6b696361,A*
G04 #@! TF.SameCoordinates,Original*
G04 #@! TF.FileFunction,Legend,Bot*
G04 #@! TF.FilePolarity,Positive*
%FSLAX46Y46*%
G04 Gerber Fmt 4.6, Leading zero omitted, Abs format (unit mm)*
G04 Created by KiCad (PCBNEW 7.0.7) date 2023-09-08 00:57:33*
%MOMM*%
%LPD*%
G01*
G04 APERTURE LIST*
%ADD10C,0.153000*%
%ADD11O,1.700000X1.700000*%
%ADD12R,1.700000X1.700000*%
G04 APERTURE END LIST*
D10*
X88809329Y-73058240D02*
X87809329Y-73058240D01*
X87809329Y-73058240D02*
X88809329Y-73629668D01*
X88809329Y-73629668D02*
X87809329Y-73629668D01*
X88142662Y-74534430D02*
X88809329Y-74534430D01*
X88142662Y-74105859D02*
X88666471Y-74105859D01*
X88666471Y-74105859D02*
X88761710Y-74153478D01*
X88761710Y-74153478D02*
X88809329Y-74248716D01*
X88809329Y-74248716D02*
X88809329Y-74391573D01*
X88809329Y-74391573D02*
X88761710Y-74486811D01*
X88761710Y-74486811D02*
X88714090Y-74534430D01*
X88142662Y-75010621D02*
X88809329Y-75010621D01*
X88237900Y-75010621D02*
X88190281Y-75058240D01*
X88190281Y-75058240D02*
X88142662Y-75153478D01*
X88142662Y-75153478D02*
X88142662Y-75296335D01*
X88142662Y-75296335D02*
X88190281Y-75391573D01*
X88190281Y-75391573D02*
X88285519Y-75439192D01*
X88285519Y-75439192D02*
X88809329Y-75439192D01*
X88761710Y-76343954D02*
X88809329Y-76248716D01*
X88809329Y-76248716D02*
X88809329Y-76058240D01*
X88809329Y-76058240D02*
X88761710Y-75963002D01*
X88761710Y-75963002D02*
X88714090Y-75915383D01*
X88714090Y-75915383D02*
X88618852Y-75867764D01*
X88618852Y-75867764D02*
X88333138Y-75867764D01*
X88333138Y-75867764D02*
X88237900Y-75915383D01*
X88237900Y-75915383D02*
X88190281Y-75963002D01*
X88190281Y-75963002D02*
X88142662Y-76058240D01*
X88142662Y-76058240D02*
X88142662Y-76248716D01*
X88142662Y-76248716D02*
X88190281Y-76343954D01*
X88809329Y-76772526D02*
X87809329Y-76772526D01*
X88809329Y-77201097D02*
X88285519Y-77201097D01*
X88285519Y-77201097D02*
X88190281Y-77153478D01*
X88190281Y-77153478D02*
X88142662Y-77058240D01*
X88142662Y-77058240D02*
X88142662Y-76915383D01*
X88142662Y-76915383D02*
X88190281Y-76820145D01*
X88190281Y-76820145D02*
X88237900Y-76772526D01*
X88142662Y-78105859D02*
X88809329Y-78105859D01*
X88142662Y-77677288D02*
X88666471Y-77677288D01*
X88666471Y-77677288D02*
X88761710Y-77724907D01*
X88761710Y-77724907D02*
X88809329Y-77820145D01*
X88809329Y-77820145D02*
X88809329Y-77963002D01*
X88809329Y-77963002D02*
X88761710Y-78058240D01*
X88761710Y-78058240D02*
X88714090Y-78105859D01*
X88761710Y-79010621D02*
X88809329Y-78915383D01*
X88809329Y-78915383D02*
X88809329Y-78724907D01*
X88809329Y-78724907D02*
X88761710Y-78629669D01*
X88761710Y-78629669D02*
X88714090Y-78582050D01*
X88714090Y-78582050D02*
X88618852Y-78534431D01*
X88618852Y-78534431D02*
X88333138Y-78534431D01*
X88333138Y-78534431D02*
X88237900Y-78582050D01*
X88237900Y-78582050D02*
X88190281Y-78629669D01*
X88190281Y-78629669D02*
X88142662Y-78724907D01*
X88142662Y-78724907D02*
X88142662Y-78915383D01*
X88142662Y-78915383D02*
X88190281Y-79010621D01*
X88809329Y-79439193D02*
X87809329Y-79439193D01*
X88428376Y-79534431D02*
X88809329Y-79820145D01*
X88142662Y-79820145D02*
X88523614Y-79439193D01*
X88285519Y-81343955D02*
X88333138Y-81486812D01*
X88333138Y-81486812D02*
X88380757Y-81534431D01*
X88380757Y-81534431D02*
X88475995Y-81582050D01*
X88475995Y-81582050D02*
X88618852Y-81582050D01*
X88618852Y-81582050D02*
X88714090Y-81534431D01*
X88714090Y-81534431D02*
X88761710Y-81486812D01*
X88761710Y-81486812D02*
X88809329Y-81391574D01*
X88809329Y-81391574D02*
X88809329Y-81010622D01*
X88809329Y-81010622D02*
X87809329Y-81010622D01*
X87809329Y-81010622D02*
X87809329Y-81343955D01*
X87809329Y-81343955D02*
X87856948Y-81439193D01*
X87856948Y-81439193D02*
X87904567Y-81486812D01*
X87904567Y-81486812D02*
X87999805Y-81534431D01*
X87999805Y-81534431D02*
X88095043Y-81534431D01*
X88095043Y-81534431D02*
X88190281Y-81486812D01*
X88190281Y-81486812D02*
X88237900Y-81439193D01*
X88237900Y-81439193D02*
X88285519Y-81343955D01*
X88285519Y-81343955D02*
X88285519Y-81010622D01*
X88809329Y-82010622D02*
X88142662Y-82010622D01*
X88333138Y-82010622D02*
X88237900Y-82058241D01*
X88237900Y-82058241D02*
X88190281Y-82105860D01*
X88190281Y-82105860D02*
X88142662Y-82201098D01*
X88142662Y-82201098D02*
X88142662Y-82296336D01*
X88761710Y-83010622D02*
X88809329Y-82915384D01*
X88809329Y-82915384D02*
X88809329Y-82724908D01*
X88809329Y-82724908D02*
X88761710Y-82629670D01*
X88761710Y-82629670D02*
X88666471Y-82582051D01*
X88666471Y-82582051D02*
X88285519Y-82582051D01*
X88285519Y-82582051D02*
X88190281Y-82629670D01*
X88190281Y-82629670D02*
X88142662Y-82724908D01*
X88142662Y-82724908D02*
X88142662Y-82915384D01*
X88142662Y-82915384D02*
X88190281Y-83010622D01*
X88190281Y-83010622D02*
X88285519Y-83058241D01*
X88285519Y-83058241D02*
X88380757Y-83058241D01*
X88380757Y-83058241D02*
X88475995Y-82582051D01*
X88809329Y-83915384D02*
X88285519Y-83915384D01*
X88285519Y-83915384D02*
X88190281Y-83867765D01*
X88190281Y-83867765D02*
X88142662Y-83772527D01*
X88142662Y-83772527D02*
X88142662Y-83582051D01*
X88142662Y-83582051D02*
X88190281Y-83486813D01*
X88761710Y-83915384D02*
X88809329Y-83820146D01*
X88809329Y-83820146D02*
X88809329Y-83582051D01*
X88809329Y-83582051D02*
X88761710Y-83486813D01*
X88761710Y-83486813D02*
X88666471Y-83439194D01*
X88666471Y-83439194D02*
X88571233Y-83439194D01*
X88571233Y-83439194D02*
X88475995Y-83486813D01*
X88475995Y-83486813D02*
X88428376Y-83582051D01*
X88428376Y-83582051D02*
X88428376Y-83820146D01*
X88428376Y-83820146D02*
X88380757Y-83915384D01*
X88809329Y-84391575D02*
X87809329Y-84391575D01*
X88428376Y-84486813D02*
X88809329Y-84772527D01*
X88142662Y-84772527D02*
X88523614Y-84391575D01*
X88809329Y-85343956D02*
X88761710Y-85248718D01*
X88761710Y-85248718D02*
X88714090Y-85201099D01*
X88714090Y-85201099D02*
X88618852Y-85153480D01*
X88618852Y-85153480D02*
X88333138Y-85153480D01*
X88333138Y-85153480D02*
X88237900Y-85201099D01*
X88237900Y-85201099D02*
X88190281Y-85248718D01*
X88190281Y-85248718D02*
X88142662Y-85343956D01*
X88142662Y-85343956D02*
X88142662Y-85486813D01*
X88142662Y-85486813D02*
X88190281Y-85582051D01*
X88190281Y-85582051D02*
X88237900Y-85629670D01*
X88237900Y-85629670D02*
X88333138Y-85677289D01*
X88333138Y-85677289D02*
X88618852Y-85677289D01*
X88618852Y-85677289D02*
X88714090Y-85629670D01*
X88714090Y-85629670D02*
X88761710Y-85582051D01*
X88761710Y-85582051D02*
X88809329Y-85486813D01*
X88809329Y-85486813D02*
X88809329Y-85343956D01*
X88142662Y-86534432D02*
X88809329Y-86534432D01*
X88142662Y-86105861D02*
X88666471Y-86105861D01*
X88666471Y-86105861D02*
X88761710Y-86153480D01*
X88761710Y-86153480D02*
X88809329Y-86248718D01*
X88809329Y-86248718D02*
X88809329Y-86391575D01*
X88809329Y-86391575D02*
X88761710Y-86486813D01*
X88761710Y-86486813D02*
X88714090Y-86534432D01*
X88142662Y-86867766D02*
X88142662Y-87248718D01*
X87809329Y-87010623D02*
X88666471Y-87010623D01*
X88666471Y-87010623D02*
X88761710Y-87058242D01*
X88761710Y-87058242D02*
X88809329Y-87153480D01*
X88809329Y-87153480D02*
X88809329Y-87248718D01*
X88809329Y-88343957D02*
X87809329Y-88343957D01*
X87904567Y-88772528D02*
X87856948Y-88820147D01*
X87856948Y-88820147D02*
X87809329Y-88915385D01*
X87809329Y-88915385D02*
X87809329Y-89153480D01*
X87809329Y-89153480D02*
X87856948Y-89248718D01*
X87856948Y-89248718D02*
X87904567Y-89296337D01*
X87904567Y-89296337D02*
X87999805Y-89343956D01*
X87999805Y-89343956D02*
X88095043Y-89343956D01*
X88095043Y-89343956D02*
X88237900Y-89296337D01*
X88237900Y-89296337D02*
X88809329Y-88724909D01*
X88809329Y-88724909D02*
X88809329Y-89343956D01*
X88714090Y-90343956D02*
X88761710Y-90296337D01*
X88761710Y-90296337D02*
X88809329Y-90153480D01*
X88809329Y-90153480D02*
X88809329Y-90058242D01*
X88809329Y-90058242D02*
X88761710Y-89915385D01*
X88761710Y-89915385D02*
X88666471Y-89820147D01*
X88666471Y-89820147D02*
X88571233Y-89772528D01*
X88571233Y-89772528D02*
X88380757Y-89724909D01*
X88380757Y-89724909D02*
X88237900Y-89724909D01*
X88237900Y-89724909D02*
X88047424Y-89772528D01*
X88047424Y-89772528D02*
X87952186Y-89820147D01*
X87952186Y-89820147D02*
X87856948Y-89915385D01*
X87856948Y-89915385D02*
X87809329Y-90058242D01*
X87809329Y-90058242D02*
X87809329Y-90153480D01*
X87809329Y-90153480D02*
X87856948Y-90296337D01*
X87856948Y-90296337D02*
X87904567Y-90343956D01*
X80149663Y-74427323D02*
X80149663Y-74236847D01*
X80149663Y-74236847D02*
X80197282Y-74141609D01*
X80197282Y-74141609D02*
X80244901Y-74093990D01*
X80244901Y-74093990D02*
X80387758Y-73998752D01*
X80387758Y-73998752D02*
X80578234Y-73951133D01*
X80578234Y-73951133D02*
X80959186Y-73951133D01*
X80959186Y-73951133D02*
X81054424Y-73998752D01*
X81054424Y-73998752D02*
X81102044Y-74046371D01*
X81102044Y-74046371D02*
X81149663Y-74141609D01*
X81149663Y-74141609D02*
X81149663Y-74332085D01*
X81149663Y-74332085D02*
X81102044Y-74427323D01*
X81102044Y-74427323D02*
X81054424Y-74474942D01*
X81054424Y-74474942D02*
X80959186Y-74522561D01*
X80959186Y-74522561D02*
X80721091Y-74522561D01*
X80721091Y-74522561D02*
X80625853Y-74474942D01*
X80625853Y-74474942D02*
X80578234Y-74427323D01*
X80578234Y-74427323D02*
X80530615Y-74332085D01*
X80530615Y-74332085D02*
X80530615Y-74141609D01*
X80530615Y-74141609D02*
X80578234Y-74046371D01*
X80578234Y-74046371D02*
X80625853Y-73998752D01*
X80625853Y-73998752D02*
X80721091Y-73951133D01*
X80482996Y-75379704D02*
X81149663Y-75379704D01*
X80102044Y-75141609D02*
X80816329Y-74903514D01*
X80816329Y-74903514D02*
X80816329Y-75522561D01*
X81149663Y-75903514D02*
X80149663Y-75903514D01*
X80149663Y-75903514D02*
X80863948Y-76236847D01*
X80863948Y-76236847D02*
X80149663Y-76570180D01*
X80149663Y-76570180D02*
X81149663Y-76570180D01*
X81149663Y-77046371D02*
X80149663Y-77046371D01*
X80530615Y-77046371D02*
X80482996Y-77141609D01*
X80482996Y-77141609D02*
X80482996Y-77332085D01*
X80482996Y-77332085D02*
X80530615Y-77427323D01*
X80530615Y-77427323D02*
X80578234Y-77474942D01*
X80578234Y-77474942D02*
X80673472Y-77522561D01*
X80673472Y-77522561D02*
X80959186Y-77522561D01*
X80959186Y-77522561D02*
X81054424Y-77474942D01*
X81054424Y-77474942D02*
X81102044Y-77427323D01*
X81102044Y-77427323D02*
X81149663Y-77332085D01*
X81149663Y-77332085D02*
X81149663Y-77141609D01*
X81149663Y-77141609D02*
X81102044Y-77046371D01*
X81244901Y-79379704D02*
X81197282Y-79284466D01*
X81197282Y-79284466D02*
X81102044Y-79189228D01*
X81102044Y-79189228D02*
X80959186Y-79046371D01*
X80959186Y-79046371D02*
X80911567Y-78951133D01*
X80911567Y-78951133D02*
X80911567Y-78855895D01*
X81149663Y-78903514D02*
X81102044Y-78808276D01*
X81102044Y-78808276D02*
X81006805Y-78713038D01*
X81006805Y-78713038D02*
X80816329Y-78665419D01*
X80816329Y-78665419D02*
X80482996Y-78665419D01*
X80482996Y-78665419D02*
X80292520Y-78713038D01*
X80292520Y-78713038D02*
X80197282Y-78808276D01*
X80197282Y-78808276D02*
X80149663Y-78903514D01*
X80149663Y-78903514D02*
X80149663Y-79093990D01*
X80149663Y-79093990D02*
X80197282Y-79189228D01*
X80197282Y-79189228D02*
X80292520Y-79284466D01*
X80292520Y-79284466D02*
X80482996Y-79332085D01*
X80482996Y-79332085D02*
X80816329Y-79332085D01*
X80816329Y-79332085D02*
X81006805Y-79284466D01*
X81006805Y-79284466D02*
X81102044Y-79189228D01*
X81102044Y-79189228D02*
X81149663Y-79093990D01*
X81149663Y-79093990D02*
X81149663Y-78903514D01*
X81102044Y-79713038D02*
X81149663Y-79855895D01*
X81149663Y-79855895D02*
X81149663Y-80093990D01*
X81149663Y-80093990D02*
X81102044Y-80189228D01*
X81102044Y-80189228D02*
X81054424Y-80236847D01*
X81054424Y-80236847D02*
X80959186Y-80284466D01*
X80959186Y-80284466D02*
X80863948Y-80284466D01*
X80863948Y-80284466D02*
X80768710Y-80236847D01*
X80768710Y-80236847D02*
X80721091Y-80189228D01*
X80721091Y-80189228D02*
X80673472Y-80093990D01*
X80673472Y-80093990D02*
X80625853Y-79903514D01*
X80625853Y-79903514D02*
X80578234Y-79808276D01*
X80578234Y-79808276D02*
X80530615Y-79760657D01*
X80530615Y-79760657D02*
X80435377Y-79713038D01*
X80435377Y-79713038D02*
X80340139Y-79713038D01*
X80340139Y-79713038D02*
X80244901Y-79760657D01*
X80244901Y-79760657D02*
X80197282Y-79808276D01*
X80197282Y-79808276D02*
X80149663Y-79903514D01*
X80149663Y-79903514D02*
X80149663Y-80141609D01*
X80149663Y-80141609D02*
X80197282Y-80284466D01*
X81149663Y-80713038D02*
X80149663Y-80713038D01*
X80149663Y-80713038D02*
X80149663Y-81093990D01*
X80149663Y-81093990D02*
X80197282Y-81189228D01*
X80197282Y-81189228D02*
X80244901Y-81236847D01*
X80244901Y-81236847D02*
X80340139Y-81284466D01*
X80340139Y-81284466D02*
X80482996Y-81284466D01*
X80482996Y-81284466D02*
X80578234Y-81236847D01*
X80578234Y-81236847D02*
X80625853Y-81189228D01*
X80625853Y-81189228D02*
X80673472Y-81093990D01*
X80673472Y-81093990D02*
X80673472Y-80713038D01*
X81149663Y-81713038D02*
X80149663Y-81713038D01*
X81149663Y-82951133D02*
X80149663Y-82951133D01*
X80149663Y-82951133D02*
X80149663Y-83332085D01*
X80149663Y-83332085D02*
X80197282Y-83427323D01*
X80197282Y-83427323D02*
X80244901Y-83474942D01*
X80244901Y-83474942D02*
X80340139Y-83522561D01*
X80340139Y-83522561D02*
X80482996Y-83522561D01*
X80482996Y-83522561D02*
X80578234Y-83474942D01*
X80578234Y-83474942D02*
X80625853Y-83427323D01*
X80625853Y-83427323D02*
X80673472Y-83332085D01*
X80673472Y-83332085D02*
X80673472Y-82951133D01*
X81102044Y-83903514D02*
X81149663Y-84046371D01*
X81149663Y-84046371D02*
X81149663Y-84284466D01*
X81149663Y-84284466D02*
X81102044Y-84379704D01*
X81102044Y-84379704D02*
X81054424Y-84427323D01*
X81054424Y-84427323D02*
X80959186Y-84474942D01*
X80959186Y-84474942D02*
X80863948Y-84474942D01*
X80863948Y-84474942D02*
X80768710Y-84427323D01*
X80768710Y-84427323D02*
X80721091Y-84379704D01*
X80721091Y-84379704D02*
X80673472Y-84284466D01*
X80673472Y-84284466D02*
X80625853Y-84093990D01*
X80625853Y-84093990D02*
X80578234Y-83998752D01*
X80578234Y-83998752D02*
X80530615Y-83951133D01*
X80530615Y-83951133D02*
X80435377Y-83903514D01*
X80435377Y-83903514D02*
X80340139Y-83903514D01*
X80340139Y-83903514D02*
X80244901Y-83951133D01*
X80244901Y-83951133D02*
X80197282Y-83998752D01*
X80197282Y-83998752D02*
X80149663Y-84093990D01*
X80149663Y-84093990D02*
X80149663Y-84332085D01*
X80149663Y-84332085D02*
X80197282Y-84474942D01*
X81149663Y-85474942D02*
X80673472Y-85141609D01*
X81149663Y-84903514D02*
X80149663Y-84903514D01*
X80149663Y-84903514D02*
X80149663Y-85284466D01*
X80149663Y-85284466D02*
X80197282Y-85379704D01*
X80197282Y-85379704D02*
X80244901Y-85427323D01*
X80244901Y-85427323D02*
X80340139Y-85474942D01*
X80340139Y-85474942D02*
X80482996Y-85474942D01*
X80482996Y-85474942D02*
X80578234Y-85427323D01*
X80578234Y-85427323D02*
X80625853Y-85379704D01*
X80625853Y-85379704D02*
X80673472Y-85284466D01*
X80673472Y-85284466D02*
X80673472Y-84903514D01*
X80863948Y-85855895D02*
X80863948Y-86332085D01*
X81149663Y-85760657D02*
X80149663Y-86093990D01*
X80149663Y-86093990D02*
X81149663Y-86427323D01*
X81149663Y-86760657D02*
X80149663Y-86760657D01*
X80149663Y-86760657D02*
X80863948Y-87093990D01*
X80863948Y-87093990D02*
X80149663Y-87427323D01*
X80149663Y-87427323D02*
X81149663Y-87427323D01*
X83913123Y-76725567D02*
X84627408Y-76725567D01*
X84627408Y-76725567D02*
X84770265Y-76677948D01*
X84770265Y-76677948D02*
X84865504Y-76582710D01*
X84865504Y-76582710D02*
X84913123Y-76439853D01*
X84913123Y-76439853D02*
X84913123Y-76344615D01*
X84913123Y-77677948D02*
X84913123Y-77201758D01*
X84913123Y-77201758D02*
X83913123Y-77201758D01*
X84817884Y-78582710D02*
X84865504Y-78535091D01*
X84865504Y-78535091D02*
X84913123Y-78392234D01*
X84913123Y-78392234D02*
X84913123Y-78296996D01*
X84913123Y-78296996D02*
X84865504Y-78154139D01*
X84865504Y-78154139D02*
X84770265Y-78058901D01*
X84770265Y-78058901D02*
X84675027Y-78011282D01*
X84675027Y-78011282D02*
X84484551Y-77963663D01*
X84484551Y-77963663D02*
X84341694Y-77963663D01*
X84341694Y-77963663D02*
X84151218Y-78011282D01*
X84151218Y-78011282D02*
X84055980Y-78058901D01*
X84055980Y-78058901D02*
X83960742Y-78154139D01*
X83960742Y-78154139D02*
X83913123Y-78296996D01*
X83913123Y-78296996D02*
X83913123Y-78392234D01*
X83913123Y-78392234D02*
X83960742Y-78535091D01*
X83960742Y-78535091D02*
X84008361Y-78582710D01*
X83913123Y-79296996D02*
X84627408Y-79296996D01*
X84627408Y-79296996D02*
X84770265Y-79249377D01*
X84770265Y-79249377D02*
X84865504Y-79154139D01*
X84865504Y-79154139D02*
X84913123Y-79011282D01*
X84913123Y-79011282D02*
X84913123Y-78916044D01*
X84913123Y-80249377D02*
X84913123Y-79773187D01*
X84913123Y-79773187D02*
X83913123Y-79773187D01*
X84817884Y-81154139D02*
X84865504Y-81106520D01*
X84865504Y-81106520D02*
X84913123Y-80963663D01*
X84913123Y-80963663D02*
X84913123Y-80868425D01*
X84913123Y-80868425D02*
X84865504Y-80725568D01*
X84865504Y-80725568D02*
X84770265Y-80630330D01*
X84770265Y-80630330D02*
X84675027Y-80582711D01*
X84675027Y-80582711D02*
X84484551Y-80535092D01*
X84484551Y-80535092D02*
X84341694Y-80535092D01*
X84341694Y-80535092D02*
X84151218Y-80582711D01*
X84151218Y-80582711D02*
X84055980Y-80630330D01*
X84055980Y-80630330D02*
X83960742Y-80725568D01*
X83960742Y-80725568D02*
X83913123Y-80868425D01*
X83913123Y-80868425D02*
X83913123Y-80963663D01*
X83913123Y-80963663D02*
X83960742Y-81106520D01*
X83960742Y-81106520D02*
X84008361Y-81154139D01*
X83913123Y-81868425D02*
X84627408Y-81868425D01*
X84627408Y-81868425D02*
X84770265Y-81820806D01*
X84770265Y-81820806D02*
X84865504Y-81725568D01*
X84865504Y-81725568D02*
X84913123Y-81582711D01*
X84913123Y-81582711D02*
X84913123Y-81487473D01*
X84913123Y-82820806D02*
X84913123Y-82344616D01*
X84913123Y-82344616D02*
X83913123Y-82344616D01*
X84817884Y-83725568D02*
X84865504Y-83677949D01*
X84865504Y-83677949D02*
X84913123Y-83535092D01*
X84913123Y-83535092D02*
X84913123Y-83439854D01*
X84913123Y-83439854D02*
X84865504Y-83296997D01*
X84865504Y-83296997D02*
X84770265Y-83201759D01*
X84770265Y-83201759D02*
X84675027Y-83154140D01*
X84675027Y-83154140D02*
X84484551Y-83106521D01*
X84484551Y-83106521D02*
X84341694Y-83106521D01*
X84341694Y-83106521D02*
X84151218Y-83154140D01*
X84151218Y-83154140D02*
X84055980Y-83201759D01*
X84055980Y-83201759D02*
X83960742Y-83296997D01*
X83960742Y-83296997D02*
X83913123Y-83439854D01*
X83913123Y-83439854D02*
X83913123Y-83535092D01*
X83913123Y-83535092D02*
X83960742Y-83677949D01*
X83960742Y-83677949D02*
X84008361Y-83725568D01*
X83913123Y-84439854D02*
X84627408Y-84439854D01*
X84627408Y-84439854D02*
X84770265Y-84392235D01*
X84770265Y-84392235D02*
X84865504Y-84296997D01*
X84865504Y-84296997D02*
X84913123Y-84154140D01*
X84913123Y-84154140D02*
X84913123Y-84058902D01*
X84913123Y-85392235D02*
X84913123Y-84916045D01*
X84913123Y-84916045D02*
X83913123Y-84916045D01*
X84817884Y-86296997D02*
X84865504Y-86249378D01*
X84865504Y-86249378D02*
X84913123Y-86106521D01*
X84913123Y-86106521D02*
X84913123Y-86011283D01*
X84913123Y-86011283D02*
X84865504Y-85868426D01*
X84865504Y-85868426D02*
X84770265Y-85773188D01*
X84770265Y-85773188D02*
X84675027Y-85725569D01*
X84675027Y-85725569D02*
X84484551Y-85677950D01*
X84484551Y-85677950D02*
X84341694Y-85677950D01*
X84341694Y-85677950D02*
X84151218Y-85725569D01*
X84151218Y-85725569D02*
X84055980Y-85773188D01*
X84055980Y-85773188D02*
X83960742Y-85868426D01*
X83960742Y-85868426D02*
X83913123Y-86011283D01*
X83913123Y-86011283D02*
X83913123Y-86106521D01*
X83913123Y-86106521D02*
X83960742Y-86249378D01*
X83960742Y-86249378D02*
X84008361Y-86296997D01*
%LPC*%
D11*
X73310000Y-88900000D03*
X73310000Y-86360000D03*
X73310000Y-83820000D03*
X73310000Y-81280000D03*
X73310000Y-78740000D03*
X73310000Y-76200000D03*
X75850000Y-88900000D03*
X75850000Y-86360000D03*
X75850000Y-83820000D03*
X75850000Y-81280000D03*
X75850000Y-78740000D03*
D12*
X75850000Y-76200000D03*
X91440000Y-76200000D03*
D11*
X91440000Y-78740000D03*
X91440000Y-81280000D03*
X91440000Y-83820000D03*
X91440000Y-86360000D03*
%LPD*%
M02*
