M48
; DRILL file {KiCad 7.0.7} date Fri Sep  8 00:57:48 2023
; FORMAT={-:-/ absolute / metric / decimal}
; #@! TF.CreationDate,2023-09-08T00:57:48+01:00
; #@! TF.GenerationSoftware,Kicad,Pcbnew,7.0.7
; #@! TF.FileFunction,Plated,1,2,PTH
FMAT,2
METRIC
; #@! TA.AperFunction,Plated,PTH,ViaDrill
T1C0.400
; #@! TA.AperFunction,Plated,PTH,ComponentDrill
T2C1.000
%
G90
G05
T1
X78.74Y-73.66
X86.36Y-81.28
X86.924Y-84.654
T2
X73.31Y-76.2
X73.31Y-78.74
X73.31Y-81.28
X73.31Y-83.82
X73.31Y-86.36
X73.31Y-88.9
X75.85Y-76.2
X75.85Y-78.74
X75.85Y-81.28
X75.85Y-83.82
X75.85Y-86.36
X75.85Y-88.9
X91.44Y-76.2
X91.44Y-78.74
X91.44Y-81.28
X91.44Y-83.82
X91.44Y-86.36
T0
M30
